<?xml version="1.0" encoding="UTF-8"?>
<svg version="1.1" xmlns="http://www.w3.org/2000/svg" width="512" height="512">
<path d="M0 0 C0.91297852 0.16628906 1.82595703 0.33257812 2.76660156 0.50390625 C44.3986228 8.16363077 83.16052206 26.40624883 116 53 C116.54446777 53.44005371 117.08893555 53.88010742 117.64990234 54.33349609 C131.72173929 65.81174863 144.93680647 78.57719064 156 93 C156.75925781 93.93070312 157.51851563 94.86140625 158.30078125 95.8203125 C184.1596216 128.07168914 200.62794761 167.52514646 208 208 C208.16371094 208.83563477 208.32742188 209.67126953 208.49609375 210.53222656 C213.78656862 238.24163521 213.41678597 270.35093304 208 298 C207.83371094 298.91297852 207.66742188 299.82595703 207.49609375 300.76660156 C199.83636923 342.3986228 181.59375117 381.16052206 155 414 C154.55994629 414.54446777 154.11989258 415.08893555 153.66650391 415.64990234 C142.18825137 429.72173929 129.42280936 442.93680647 115 454 C114.06929688 454.75925781 113.13859375 455.51851563 112.1796875 456.30078125 C79.92831086 482.1596216 40.47485354 498.62794761 0 506 C-0.83563477 506.16371094 -1.67126953 506.32742188 -2.53222656 506.49609375 C-30.24163521 511.78656862 -62.35093304 511.41678597 -90 506 C-90.91297852 505.83371094 -91.82595703 505.66742188 -92.76660156 505.49609375 C-134.3986228 497.83636923 -173.16052206 479.59375117 -206 453 C-206.54446777 452.55994629 -207.08893555 452.11989258 -207.64990234 451.66650391 C-221.72173929 440.18825137 -234.93680647 427.42280936 -246 413 C-246.75925781 412.06929688 -247.51851562 411.13859375 -248.30078125 410.1796875 C-274.1596216 377.92831086 -290.62794761 338.47485354 -298 298 C-298.16371094 297.16436523 -298.32742188 296.32873047 -298.49609375 295.46777344 C-303.78656862 267.75836479 -303.41678597 235.64906696 -298 208 C-297.83371094 207.08702148 -297.66742188 206.17404297 -297.49609375 205.23339844 C-289.83636923 163.6013772 -271.59375117 124.83947794 -245 92 C-244.55994629 91.45553223 -244.11989258 90.91106445 -243.66650391 90.35009766 C-232.18825137 76.27826071 -219.42280936 63.06319353 -205 52 C-204.06929688 51.24074219 -203.13859375 50.48148438 -202.1796875 49.69921875 C-169.92831086 23.8403784 -130.47485354 7.37205239 -90 0 C-89.16436523 -0.16371094 -88.32873047 -0.32742188 -87.46777344 -0.49609375 C-59.75836479 -5.78656862 -27.64906696 -5.41678597 0 0 Z " fill="#CBE3FF" transform="translate(301,3)"/>
<path d="M0 0 C0.91297852 0.16628906 1.82595703 0.33257812 2.76660156 0.50390625 C44.3986228 8.16363077 83.16052206 26.40624883 116 53 C116.54446777 53.44005371 117.08893555 53.88010742 117.64990234 54.33349609 C131.72173929 65.81174863 144.93680647 78.57719064 156 93 C156.75925781 93.93070312 157.51851563 94.86140625 158.30078125 95.8203125 C184.1596216 128.07168914 200.62794761 167.52514646 208 208 C208.16371094 208.83563477 208.32742188 209.67126953 208.49609375 210.53222656 C213.78656862 238.24163521 213.41678597 270.35093304 208 298 C207.83371094 298.91297852 207.66742188 299.82595703 207.49609375 300.76660156 C199.83636923 342.3986228 181.59375117 381.16052206 155 414 C154.55994629 414.54446777 154.11989258 415.08893555 153.66650391 415.64990234 C142.18825137 429.72173929 129.42280936 442.93680647 115 454 C114.06929688 454.75925781 113.13859375 455.51851563 112.1796875 456.30078125 C79.92831086 482.1596216 40.47485354 498.62794761 0 506 C-0.83563477 506.16371094 -1.67126953 506.32742188 -2.53222656 506.49609375 C-30.24163521 511.78656862 -62.35093304 511.41678597 -90 506 C-90.91297852 505.83371094 -91.82595703 505.66742188 -92.76660156 505.49609375 C-134.3986228 497.83636923 -173.16052206 479.59375117 -206 453 C-206.54446777 452.55994629 -207.08893555 452.11989258 -207.64990234 451.66650391 C-221.72173929 440.18825137 -234.93680647 427.42280936 -246 413 C-246.75925781 412.06929688 -247.51851562 411.13859375 -248.30078125 410.1796875 C-274.1596216 377.92831086 -290.62794761 338.47485354 -298 298 C-298.16371094 297.16436523 -298.32742188 296.32873047 -298.49609375 295.46777344 C-303.78656862 267.75836479 -303.41678597 235.64906696 -298 208 C-297.83371094 207.08702148 -297.66742188 206.17404297 -297.49609375 205.23339844 C-289.83636923 163.6013772 -271.59375117 124.83947794 -245 92 C-244.55994629 91.45553223 -244.11989258 90.91106445 -243.66650391 90.35009766 C-232.18825137 76.27826071 -219.42280936 63.06319353 -205 52 C-204.06929688 51.24074219 -203.13859375 50.48148438 -202.1796875 49.69921875 C-169.92831086 23.8403784 -130.47485354 7.37205239 -90 0 C-89.16436523 -0.16371094 -88.32873047 -0.32742188 -87.46777344 -0.49609375 C-59.75836479 -5.78656862 -27.64906696 -5.41678597 0 0 Z M-98 25 C-98.79019531 25.17901855 -99.58039063 25.35803711 -100.39453125 25.54248047 C-119.21625599 29.91626849 -136.99705838 36.85690875 -154 46 C-154.97114746 46.51167725 -154.97114746 46.51167725 -155.96191406 47.03369141 C-176.45751847 57.86679398 -194.22630595 72.09774065 -211 88 C-211.75410156 88.7115625 -212.50820312 89.423125 -213.28515625 90.15625 C-232.18888186 108.49624621 -247.04174471 132.17819032 -258 156 C-258.33628418 156.72767578 -258.67256836 157.45535156 -259.01904297 158.20507812 C-264.61791745 170.48105092 -268.65729933 182.9400277 -272 196 C-272.20109375 196.78213867 -272.4021875 197.56427734 -272.609375 198.37011719 C-279.46649343 225.39318696 -281.5656126 254.06825717 -277.34619141 281.72265625 C-277.10342327 283.31965282 -276.87516617 284.91889096 -276.65771484 286.51953125 C-273.45930447 309.91459721 -266.57442627 332.86970722 -256 354 C-255.59023926 354.8343457 -255.18047852 355.66869141 -254.75830078 356.52832031 C-248.74365898 368.70925228 -242.11383053 380.10204046 -234 391 C-233.56220215 391.59329102 -233.1244043 392.18658203 -232.67333984 392.79785156 C-212.89877778 419.39350192 -188.3372501 440.06408985 -160 457 C-159.37335449 457.37608398 -158.74670898 457.75216797 -158.10107422 458.13964844 C-140.83070545 468.3381196 -121.4408537 475.30273015 -102 480 C-100.52464562 480.37072001 -99.04938607 480.7418176 -97.57421875 481.11328125 C-71.22306691 487.63619003 -43.18621942 489.45186299 -16.27734375 485.34619141 C-14.68034718 485.10342327 -13.08110904 484.87516617 -11.48046875 484.65771484 C11.91459721 481.45930447 34.86970722 474.57442627 56 464 C56.8343457 463.59023926 57.66869141 463.18047852 58.52832031 462.75830078 C70.70925228 456.74365898 82.10204046 450.11383053 93 442 C93.59329102 441.56220215 94.18658203 441.1244043 94.79785156 440.67333984 C133.16309427 412.14777784 161.87773422 372.36679734 177 327 C177.31308105 326.06075684 177.62616211 325.12151367 177.94873047 324.15380859 C191.14280842 283.70683229 192.36927569 241.35179889 183 200 C182.82098145 199.20980469 182.64196289 198.41960937 182.45751953 197.60546875 C178.08373151 178.78374401 171.14309125 161.00294162 162 144 C161.48832275 143.02885254 161.48832275 143.02885254 160.96630859 142.03808594 C150.1296878 121.53582527 135.89032524 103.7924476 120 87 C119.36191406 86.319375 118.72382813 85.63875 118.06640625 84.9375 C113.11809837 79.81119544 107.57454556 75.42194121 102 71 C100.99839844 70.19304687 99.99679687 69.38609375 98.96484375 68.5546875 C78.19793116 52.01602248 54.14819827 39.38273276 29 31 C28.06075684 30.68691895 27.12151367 30.37383789 26.15380859 30.05126953 C-14.29316771 16.85719158 -56.64820111 15.63072431 -98 25 Z " fill="#007AFF" transform="translate(301,3)"/>
<path d="M0 0 C3.85387841 1.95459862 6.45628691 4.34574164 9.375 7.5 C30.99155435 29.46830302 61.52342652 42.99131667 92.3503418 43.38061523 C129.72987817 43.32310441 161.29094298 30.76000353 187.89453125 4.1015625 C190.82075062 1.28763597 192.92445576 -0.39024918 197.0625 -0.6875 C202.02462228 0.1789023 203.56512223 1.39756721 207 5 C208.29968824 8.89906471 208.65515606 10.87251684 208 15 C205.33989568 18.67460087 202.20741923 21.80297759 199 25 C198.19369141 25.89525391 198.19369141 25.89525391 197.37109375 26.80859375 C176.79559255 49.21064075 140.62129313 64.76751288 110.5871582 66.28930664 C106.82109896 66.41115605 103.05867615 66.42248364 99.29101562 66.39111328 C97.00069688 66.3750049 94.71214161 66.39108699 92.421875 66.41015625 C55.3864495 66.46368711 20.1330983 49.71888493 -6 24 C-6.83273438 23.19175781 -7.66546875 22.38351562 -8.5234375 21.55078125 C-11.87468394 18.08782659 -13.80528448 16.06208465 -14.6875 11.25 C-13.76858037 6.90601631 -12.3129907 4.35988322 -9.25 1.1875 C-5.99828436 -0.52868326 -3.62539838 -0.38162088 0 0 Z " fill="#017BFF" transform="translate(159,312)"/>
<path d="M0 0 C11.13396721 9.66630789 20.22794955 21.81719243 21.63671875 36.8984375 C21.6693906 38.26150694 21.69144974 39.6248703 21.703125 40.98828125 C21.75243164 42.01018555 21.75243164 42.01018555 21.80273438 43.05273438 C21.84397327 46.95543385 21.28170859 49.37922547 18.86328125 52.359375 C15.85748325 55.32901302 15.1646124 55.82205193 11.015625 56.30078125 C6.02150926 55.80136968 4.73745434 54.47835081 1.265625 50.92578125 C-0.8049078 47.61292877 -1.16260167 44.52350262 -1.609375 40.67578125 C-2.84323778 32.13439008 -5.64941413 26.14903668 -11.734375 19.92578125 C-21.13661915 12.89843107 -31.26512577 11.52228908 -42.734375 12.92578125 C-46.51895567 14.07204974 -49.50843234 15.66196184 -52.734375 17.92578125 C-53.806875 18.64765625 -54.879375 19.36953125 -55.984375 20.11328125 C-62.70248488 26.98407544 -65.44205129 33.8186631 -66.53393555 43.21606445 C-67.26797928 48.6498685 -68.99821488 51.12629639 -72.734375 54.92578125 C-75.93691647 56.52705199 -78.18752064 56.33279732 -81.734375 55.92578125 C-85.04850855 53.91899822 -88.12832042 51.69518198 -89.4140625 47.94140625 C-91.31913765 35.95337239 -87.01813812 24.01251597 -80.734375 13.92578125 C-77.95652688 10.34341973 -74.95770213 7.10910255 -71.734375 3.92578125 C-71.19296875 3.36246094 -70.6515625 2.79914063 -70.09375 2.21875 C-51.17258752 -15.89014035 -20.25597203 -15.36560164 0 0 Z " fill="#037BFF" transform="translate(200.734375,189.07421875)"/>
<path d="M0 0 C3.58217688 2.77770495 6.8195414 5.77394342 10 9 C10.57492187 9.56460938 11.14984375 10.12921875 11.7421875 10.7109375 C20.03253502 19.51674704 24.92867677 32.40351272 25.3125 44.4375 C24.85330784 49.67229063 23.94892925 51.93534767 20.4375 55.875 C17.08421777 58.46393113 14.3428122 58.36750276 10.24609375 57.98046875 C6.85326583 56.4994256 4.8406027 54.12434473 3 51 C2.32974829 48.31899316 1.87831101 45.96033292 1.5625 43.25 C0.10832954 33.89640725 -2.94841409 27.23424898 -10.375 21.0625 C-19.53899542 14.65072762 -28.96388815 13.53810167 -40 15 C-43.77975708 16.1524228 -46.77928759 17.73171617 -50 20 C-50.58007812 20.38414062 -51.16015625 20.76828125 -51.7578125 21.1640625 C-57.52738647 25.4260091 -61.34528243 32.10534344 -63 39 C-63.1365378 40.66576115 -63.26052026 42.33257769 -63.375 44 C-63.85721457 49.6258366 -65.90582806 52.83361523 -69.8125 56.875 C-73.11439479 58.57311732 -75.33844727 58.50504176 -79 58 C-81.97046873 56.20976215 -84.42502414 54.14995172 -86 51 C-87.25049438 36.35135153 -84.36293604 24.23793739 -75.08984375 12.4609375 C-74.40019531 11.64882812 -73.71054687 10.83671875 -73 10 C-72.38253906 9.27039063 -71.76507813 8.54078125 -71.12890625 7.7890625 C-52.6253207 -12.29175175 -22.55248252 -14.04958708 0 0 Z " fill="#037BFF" transform="translate(376,187)"/>
</svg>
